<?xml version="1.0" standalone="no"?><!DOCTYPE svg PUBLIC "-//W3C//DTD SVG 1.1//EN" "http://www.w3.org/Graphics/SVG/1.1/DTD/svg11.dtd"><svg t="1545905597504" class="icon" style="" viewBox="0 0 1024 1024" version="1.1" xmlns="http://www.w3.org/2000/svg" p-id="1367" xmlns:xlink="http://www.w3.org/1999/xlink" width="200" height="200"><defs><style type="text/css"></style></defs><path d="M838.4 480c-19.2 0-38.4 12.8-38.4 38.4 0 19.2 12.8 32 38.4 32 19.2 0 32-12.8 32-32C870.4 492.8 857.6 480 838.4 480zM851.2 659.2c-19.2 0-32 12.8-32 32l0 115.2c0 19.2-19.2 38.4-38.4 38.4L160 844.8c-19.2 0-38.4-19.2-38.4-38.4l0-576c0-19.2 19.2-38.4 38.4-38.4l620.8 0c19.2 0 38.4 19.2 38.4 38.4l0 121.6c0 19.2 12.8 32 32 32 19.2 0 32-12.8 32-32L883.2 217.6c0-51.2-44.8-96-96-96L153.6 121.6C108.8 128 64 166.4 64 217.6l0 582.4C64 857.6 108.8 896 153.6 896l633.6 0c51.2 0 96-44.8 96-89.6l0-115.2C883.2 672 870.4 659.2 851.2 659.2zM902.4 486.4l0 57.6c0 19.2-19.2 38.4-38.4 38.4L544 582.4C524.8 582.4 512 563.2 512 544L512 486.4C512 467.2 524.8 448 544 448l313.6 0C883.2 448 902.4 467.2 902.4 486.4zM870.4 390.4 544 390.4C492.8 390.4 454.4 422.4 448 473.6c0 0 0 6.4 0 6.4l0 70.4C448 601.6 492.8 640 544 640l326.4 0c51.2 0 89.6-44.8 89.6-89.6l0-64C960 428.8 915.2 390.4 870.4 390.4z" p-id="1368" fill="#ff4444"></path></svg>