<?xml version="1.0" standalone="no"?><!DOCTYPE svg PUBLIC "-//W3C//DTD SVG 1.1//EN" "http://www.w3.org/Graphics/SVG/1.1/DTD/svg11.dtd"><svg t="1546930750032" class="icon" style="" viewBox="0 0 1024 1024" version="1.1" xmlns="http://www.w3.org/2000/svg" p-id="2071" xmlns:xlink="http://www.w3.org/1999/xlink" width="200" height="200"><defs><style type="text/css"></style></defs><path d="M644.6 628c-47.3 0-85.5 38.3-85.5 85.6 0 47.1 38.2 85.5 85.5 85.5s85.5-38.3 85.5-85.5c-0.1-47.2-38.3-85.6-85.5-85.6z m0 128.4c-23.6 0-42.7-19.2-42.7-42.7 0-23.6 19.1-42.7 42.7-42.7s42.7 19.1 42.7 42.7c0 23.4-19.1 42.7-42.7 42.7z" fill="#ffffff" p-id="2072"></path><path d="M0 656.1c0 22.8 18.5 41.2 41.2 41.2h44.1c8-54.7 55.1-96.7 112-96.7 56.7 0 103.9 42 111.8 96.7h223.6c8-54.7 55.1-96.7 111.8-96.7s103.9 42 111.8 96.7h55.2c22.8 0 41.2-18.5 41.2-41.2v-91.3H0v91.3z" fill="#ffffff" p-id="2073"></path><path d="M197.2 628c-47.1 0-85.5 38.3-85.5 85.6 0 47.1 38.3 85.5 85.5 85.5 47.3 0 85.6-38.3 85.6-85.5S244.5 628 197.2 628z m0 128.4c-23.5 0-42.7-19.2-42.7-42.7 0-23.6 19.2-42.7 42.7-42.7 23.6 0 42.7 19.1 42.7 42.7 0 23.4-19.1 42.7-42.7 42.7z" fill="#ffffff" p-id="2074"></path><path d="M724.8 402.8l299.2-42.5-300.2-29.8 296.4-38.6-167.3-19.3v-6.5c0-22.8-18.5-41.2-41.2-41.2H339.8c-22.8 0-41.2 18.4-41.2 41.2v30.6h-81.8c-14.4 0-28.3 5.8-38.6 15.9l-162 160.2C5.9 483.2 0 497.2 0 511.9V542h852.9v-81l171.1-32.3-299.2-25.9z m-474.7 69c0 3.6-2.9 6.5-6.5 6.5H86.9c-5.8 0-8.7-7.1-4.4-11.1l126.8-121.1c1.2-1.1 2.9-1.8 4.5-1.8h29.8c3.6 0 6.5 2.9 6.5 6.5v121z" fill="#ffffff" p-id="2075"></path></svg>