<?xml version="1.0" standalone="no"?><!DOCTYPE svg PUBLIC "-//W3C//DTD SVG 1.1//EN" "http://www.w3.org/Graphics/SVG/1.1/DTD/svg11.dtd"><svg t="1545905736186" class="icon" style="" viewBox="0 0 1024 1024" version="1.1" xmlns="http://www.w3.org/2000/svg" p-id="3472" xmlns:xlink="http://www.w3.org/1999/xlink" width="200" height="200"><defs><style type="text/css"></style></defs><path d="M518.4 249.6 320 249.6 211.2 249.6 166.4 249.6c-12.8 0-25.6 6.4-25.6 19.2L64 608c0 6.4 0 6.4 0 12.8l76.8 307.2c0 12.8 12.8 19.2 25.6 19.2L832 947.2c12.8 0 19.2-6.4 25.6-19.2l76.8-307.2c0-6.4 0-6.4 0-12.8l-32-153.6C934.4 416 960 358.4 960 300.8c0-121.6-102.4-224-224-224C627.2 76.8 537.6 153.6 518.4 249.6z" p-id="3473" fill="#ff4444"></path><path d="M614.4 742.4 691.2 640 876.8 640 812.8 896 185.6 896 121.6 640 307.2 640 384 742.4Z" p-id="3474" fill="#ff4444"></path><path d="M736 300.8m-179.2 0a2.8 2.8 0 1 0 358.4 0 2.8 2.8 0 1 0-358.4 0Z" p-id="3475" fill="#ff4444"></path><path d="M550.4 422.4 160 422.4l25.6-102.4c0-12.8 12.8-19.2 25.6-19.2l0 0L320 300.8l192 0C512 345.6 524.8 390.4 550.4 422.4z" p-id="3476" fill="#ff4444"></path><path d="M857.6 492.8l12.8 64c6.4 19.2-6.4 32-25.6 32l-166.4 0c-6.4 0-12.8 6.4-19.2 12.8l-64 83.2c-6.4 6.4-12.8 12.8-19.2 12.8L422.4 697.6c-6.4 0-12.8-6.4-19.2-12.8l-64-83.2C339.2 588.8 326.4 588.8 320 588.8L153.6 588.8C140.8 588.8 128 569.6 128 556.8l19.2-76.8 448 0c38.4 32 89.6 51.2 140.8 51.2C780.8 524.8 819.2 512 857.6 492.8z" p-id="3477" fill="#ff4444"></path><path d="M812.8 332.8 716.8 332.8 716.8 192 742.4 192 742.4 300.8 812.8 300.8Z" p-id="3478" fill="#ff4444"></path></svg>