<?xml version="1.0" standalone="no"?><!DOCTYPE svg PUBLIC "-//W3C//DTD SVG 1.1//EN" "http://www.w3.org/Graphics/SVG/1.1/DTD/svg11.dtd"><svg t="1553754274874" class="icon" style="" viewBox="0 0 1029 1024" version="1.1" xmlns="http://www.w3.org/2000/svg" p-id="2954" xmlns:xlink="http://www.w3.org/1999/xlink" width="81.3955078125" height="81"><defs><style type="text/css"></style></defs><path d="M942.835 1024h-840.23V596.738h102.093v325.168h636.044V596.738h102.093z" p-id="2955" fill="#d81e06"></path><path d="M611.541 282.29H478.31l7.657-48.495c9.189-58.194 31.139-117.919 59.214-159.777C575.81 27.565 627.876 0 683.517 0c45.432 0 88.822 17.866 119.45 49.005 29.097 29.607 44.921 70.445 44.41 113.834-2.041 118.43-88.31 118.43-125.064 118.43l-33.69-0.511h-9.19c-22.97 1.531-45.431 1.531-67.892 1.531z m-32.16-83.718h31.65c21.95 0 43.9 0 65.85-0.51h10.72l33.691 0.51c39.817 0 40.838 0 41.348-36.243 0.51-21.44-6.126-39.817-19.908-53.6-15.825-15.824-37.264-24.502-59.725-23.991-16.335 0-46.963 4.594-68.913 36.754-13.272 20.418-25.524 47.984-34.712 77.08z" p-id="2956" fill="#d81e06"></path><path d="M423.689 282.29c-22.46 0-44.921 0-67.382-0.511h-9.188l-33.691 0.51c-36.754 0-123.023 0-125.065-118.429-1.021-42.368 14.804-83.716 44.41-113.834C263.914 17.866 306.793 0.51 351.714 0.51 407.353 0 459.422 28.076 490.05 74.528c28.076 41.348 50.026 101.073 59.214 159.267l7.657 48.494H423.69z m-77.08-84.228h10.719c21.95 0.51 43.9 0.51 65.85 0.51h31.65c-7.658-27.055-19.398-53.088-34.712-77.08-15.314-23.482-40.838-37.265-68.914-36.754-22.97 0-44.92 8.678-59.724 23.992-13.783 14.293-21.44 33.69-20.42 53.599 0.511 35.733 1.532 36.243 40.838 36.243h0.51l34.202-0.51z" p-id="2957" fill="#d81e06"></path><path d="M996.435 562.536H30.628V249.11h965.807v313.427zM142.42 450.744h742.221V360.9H142.421v89.843z" p-id="2958" fill="#d81e06"></path><path d="M474.225 240.43h96.99v781.018h-96.99V240.43z" p-id="2959" fill="#d81e06"></path></svg>