<?xml version="1.0" encoding="utf-8"?>
<!-- Generator: Adobe Illustrator 22.1.0, SVG Export Plug-In . SVG Version: 6.00 Build 0)  -->
<svg version="1.1" id="图层_1" xmlns="http://www.w3.org/2000/svg" xmlns:xlink="http://www.w3.org/1999/xlink" x="0px" y="0px"
	 viewBox="0 0 612 792" style="enable-background:new 0 0 612 792;" xml:space="preserve">
<style type="text/css">
	.st0{fill:#050505;}
</style>
<path class="st0" d="M306,396"/>
<path class="st0" d="M438.6,595.2h-42.4c-19,0-36.8-7.5-50.2-20.9S325.2,543,325.2,524V414.4H435c39.1,0,71,31.9,71,71V524
	c0,19-7.4,36.8-20.8,50.2c-12.6,12.6-28.9,19.8-46.6,20.7L438.6,595.2L438.6,595.2z M216,595.2h-39c-19,0-36.8-7.5-50.2-20.9
	S106,543,106,524v-38.6c0-18.9,7.5-36.8,20.8-50.2c13.4-13.4,31.2-20.8,50.2-20.8h110V524c0,19-7.4,36.8-20.8,50.3
	C252.8,587.7,234.9,595.1,216,595.2z M435,561.5c0,0,0.1,0,0.2,0c9.9,0,19.5-4,26.5-10.9c7-7,11.1-16.7,11.1-26.6v-38.6
	c-0.1-20.6-16.9-37.4-37.5-37.5l-76.6-0.2V524c0.1,20.6,16.9,37.4,37.5,37.5H435L435,561.5z M177,447.7
	c-20.6,0.1-37.4,16.9-37.5,37.5V524c0.1,20.6,16.9,37.4,37.5,37.5h39c20.6-0.1,37.4-16.9,37.5-37.5v-76.3H177z M435,377.8H325.2
	v-110c0-18.9,7.5-36.8,20.8-50.2c13.4-13.4,31.2-20.8,50.1-20.8h38.8c39.1,0,71,31.9,71,71v39C506,345.9,474.1,377.8,435,377.8z
	 M287,377.8H177c-18.9,0-36.8-7.5-50.2-20.8c-13.4-13.4-20.8-31.2-20.8-50.2v-39c0-18.9,7.5-36.8,20.8-50.2
	c13.4-13.4,31.2-20.8,50.2-20.8h39c18.9,0,36.8,7.5,50.2,20.8c13.4,13.4,20.8,31.2,20.8,50.2V377.8L287,377.8z M358.5,344.3H435
	c20.7,0,37.6-16.8,37.7-37.5v-39c-0.1-20.7-17-37.5-37.7-37.5h-38.8c-20.6,0.1-37.4,16.9-37.5,37.5L358.5,344.3z M177,230.3
	c-20.6,0.1-37.4,16.9-37.5,37.5v39c0.1,20.6,16.9,37.4,37.5,37.5h76.5v-76.5c-0.1-20.6-16.9-37.4-37.5-37.5H177z"/>
</svg>
