<?xml version="1.0" encoding="utf-8"?>
<!-- Generator: Adobe Illustrator 22.1.0, SVG Export Plug-In . SVG Version: 6.00 Build 0)  -->
<svg version="1.1" id="图层_1" xmlns="http://www.w3.org/2000/svg" xmlns:xlink="http://www.w3.org/1999/xlink" x="0px" y="0px"
	 viewBox="0 0 612 792" style="enable-background:new 0 0 612 792;" xml:space="preserve">
	 	 <style type="text/css">
	.st0{fill:red;}
</style>
<g>
	<path class="st0" d="M453.8,596H158.2c-12.4,0-22.4-10.1-22.4-22.4V449.3c0-32.8,26.7-59.4,59.4-59.4h221.7c32.8,0,59.4,26.7,59.4,59.4v124.2
		C476.3,585.9,466.2,596,453.8,596z M306,370.3c-48,0-87.1-39.1-87.1-87.1S258,196,306,196c23.3,0,45.2,9.1,61.6,25.5
		c16.5,16.5,25.5,38.4,25.5,61.6C393.1,331.2,354,370.3,306,370.3z"/>
</g>
</svg>
