<?xml version="1.0" encoding="utf-8"?>
<!-- Generator: Adobe Illustrator 22.1.0, SVG Export Plug-In . SVG Version: 6.00 Build 0)  -->
<svg version="1.1" id="图层_1" xmlns="http://www.w3.org/2000/svg" xmlns:xlink="http://www.w3.org/1999/xlink" x="0px" y="0px"
	 viewBox="0 0 612 792" style="enable-background:new 0 0 612 792;" xml:space="preserve">
<g>
	<path d="M306,227.7c30.6,0,55.4,24.8,55.4,55.4s-24.8,55.4-55.4,55.4s-55.4-24.8-55.4-55.4S275.4,227.7,306,227.7 M306,200
		c-45.9,0-83.2,37.2-83.2,83.2s37.2,83.2,83.2,83.2s83.2-37.2,83.2-83.2c0-22-8.8-43.2-24.4-58.8C349.2,208.8,328.1,200,306,200
		L306,200z M416.9,421.6c15.3,0,27.7,12.4,27.7,27.7v115H167.4v-115c0-15.3,12.4-27.7,27.7-27.7L416.9,421.6 M416.9,393.9H195.1
		c-30.6,0-55.4,24.8-55.4,55.4v124.2c0,10.2,8.3,18.5,18.5,18.5h295.7c10.2,0,18.5-8.3,18.5-18.5V449.3
		C472.4,418.7,447.5,393.9,416.9,393.9L416.9,393.9z"/>
	<path d="M453.8,596H158.2c-12.4,0-22.4-10.1-22.4-22.4V449.3c0-32.8,26.7-59.4,59.4-59.4h221.7c32.8,0,59.4,26.7,59.4,59.4v124.2
		C476.3,585.9,466.2,596,453.8,596z M195.1,397.8c-28.4,0-51.5,23.1-51.5,51.5v124.2c0,8,6.5,14.5,14.5,14.5h295.7
		c8,0,14.5-6.5,14.5-14.5V449.3c0-28.4-23.1-51.5-51.5-51.5H195.1z M448.6,568.3H163.5v-119c0-17.5,14.2-31.7,31.7-31.7h221.7
		c17.5,0,31.7,14.2,31.7,31.7L448.6,568.3L448.6,568.3z M171.4,560.3h269.2v-111c0-13.1-10.7-23.8-23.8-23.8H195.1
		c-13.1,0-23.8,10.7-23.8,23.8L171.4,560.3L171.4,560.3z M306,370.3c-48,0-87.1-39.1-87.1-87.1S258,196,306,196
		c23.3,0,45.2,9.1,61.6,25.5c16.5,16.5,25.5,38.4,25.5,61.6C393.1,331.2,354,370.3,306,370.3z M306,203.9
		c-43.7,0-79.2,35.5-79.2,79.2s35.5,79.2,79.2,79.2s79.2-35.5,79.2-79.2c0-21.1-8.2-41-23.2-56C347,212.2,327.2,203.9,306,203.9z
		 M306,342.6c-32.8,0-59.4-26.7-59.4-59.4s26.7-59.4,59.4-59.4s59.4,26.7,59.4,59.4S338.8,342.6,306,342.6z M306,231.7
		c-28.4,0-51.5,23.1-51.5,51.5s23.1,51.5,51.5,51.5c28.4,0,51.5-23.1,51.5-51.5S334.4,231.7,306,231.7z"/>
</g>
</svg>
