<?xml version="1.0" standalone="no"?><!DOCTYPE svg PUBLIC "-//W3C//DTD SVG 1.1//EN" "http://www.w3.org/Graphics/SVG/1.1/DTD/svg11.dtd"><svg t="1553753882289" class="icon" style="" viewBox="0 0 1024 1024" version="1.1" xmlns="http://www.w3.org/2000/svg" p-id="6452" xmlns:xlink="http://www.w3.org/1999/xlink" width="81" height="81"><defs><style type="text/css"></style></defs><path d="M992.521418 16.169326 42.659499 16.169326c-11.352931 0-20.641693 9.288762-20.641693 20.641693l0 950.033932c0 11.352931 9.288762 20.641693 20.641693 20.641693l45.755753 0c0 0 0 0 0 0 0 0 0.172014 0 0.172014 0 9.116748 0 16.685369-6.70855 18.233496-15.48127 0 0 0 0 0 0 6.364522-28.554342 31.994625-49.884092 62.613136-49.884092 30.274483 0 55.732572 20.985721 62.441122 49.024022 0 0 0 0 0 0 1.204099 9.288762 8.944734 16.341341 18.40551 16.341341 0.688056 0 1.204099 0 1.892155-0.172014 0 0 0 0 0 0l65.70939 0c0 0 0.172014 0 0.172014 0 0 0 0.172014 0 0.172014 0l0.344028 0c0 0 0 0 0 0 8.77272-0.172014 15.997312-6.536536 17.717453-14.965228 0 0 0 0 0 0 6.192508-28.726356 31.82261-50.400134 62.78515-50.400134 30.618512 0 56.248614 21.32975 62.613136 49.712078 0 0 0 0 0 0 1.376113 8.944734 9.116748 15.653284 18.233496 15.653284 0.516042 0 1.032085 0 1.548127 0 0 0 0 0 0 0l70.353771 0c0 0 0.172014 0 0.172014 0 0 0 0.172014 0 0.172014 0l0.172014 0c0 0 0 0 0 0 9.288762-0.172014 16.857383-7.224593 18.061482-16.341341 0 0 0.172014 0 0.172014 0 6.70855-28.0383 32.166639-49.024022 62.441122-49.024022 30.102469 0 55.216529 20.469679 62.269108 48.163951 0.860071 9.63279 8.77272 17.201411 18.40551 17.201411 0 0 0.172014 0 0.172014 0l72.417941 0c0 0 0.172014 0 0.172014 0 0 0 0.172014 0 0.172014 0l0.688056 0c0 0 0 0 0 0 8.944734-0.516042 16.169326-7.052579 17.373425-15.825298 0 0 0 0 0 0 6.536536-28.382328 31.994625-49.540064 62.613136-49.540064 29.586427 0 54.528473 19.953637 61.92508 46.959852 1.032085 10.492861 10.148833 18.577524 21.32975 18.577524 1.204099 0 2.236183-0.172014 3.440282-0.344028L992.521418 1007.142617c11.352931 0 20.641693-9.288762 20.641693-20.641693L1013.163111 36.81102C1013.163111 25.458088 1003.874349 16.169326 992.521418 16.169326zM266.621871 513.118092c-18.233496 8.084663-39.563245 16.685369-63.989249 25.974131l0 132.794893c0 25.286074-13.073072 38.015118-39.391231 38.015118L116.453553 709.902234l-7.224593-31.306568c20.297665 1.204099 34.574836 1.720141 43.003528 1.720141 11.69696 0 17.373425-5.676466 17.373425-17.029397l0-112.669242c-33.026709 10.148833-56.248614 17.029397-69.321687 20.641693l-8.084663-30.446498c28.0383-6.192508 53.840417-13.073072 77.40635-20.641693l0-103.38048L99.424156 416.79019l0-30.790526 70.181757 0 0-81.018646 33.026709 0 0 81.018646 58.140769 0 0 30.790526-58.140769 0 0 91.683521c20.297665-8.084663 41.627415-17.373425 63.989249-27.694272L266.621871 513.118092zM499.184949 370.002352l-72.417941 0L426.767008 667.414749c0 27.694272-13.417101 41.627415-40.251302 41.627415l-73.278011 0-6.70855-30.790526c32.166639 1.204099 55.216529 1.720141 68.805644 1.720141 12.213002 0 18.40551-6.880564 18.40551-20.641693L393.740299 370.002352l-119.033764 0 0-31.306568 224.478414 0L499.184949 370.002352zM645.396943 667.414749c0 27.694272-13.245087 41.627415-39.73526 41.627415l-41.627415 0-7.224593-30.790526c14.965228 1.548127 27.350244 2.236183 37.499076 2.236183 12.901058 0 19.26558-7.052579 19.26558-20.985721l0-106.820763c-20.641693 7.224593-41.627415 13.933143-63.129179 20.125651l-7.568621-32.166639c21.845792-4.816395 45.239711-11.352931 70.697799-19.609609l0-103.724509-63.473207 0 0-30.790526 63.473207 0 0-81.878717 31.82261 0 0 81.878717 55.388544 0 0 30.790526-55.388544 0L645.396943 509.161767c22.017806-9.288762 41.111372-17.889467 57.280699-25.974131l0 32.682681c-12.55703 6.020494-31.650596 14.277171-57.280699 25.11406L645.396943 667.414749zM946.421636 479.57534l-67.945574 0 0 237.035444-32.682681 0L845.793381 479.57534l-84.974971 0 0 19.609609c-2.752226 88.931295-24.426004 159.973123-65.365362 213.297497l-22.877877-23.737947c35.262893-46.44381 54.184445-109.745003 56.764656-189.55955l0-159.285066c70.009743-1.720141 133.310936-13.417101 189.55955-34.918864l15.653284 29.070385c-51.604233 18.40551-109.572988 29.414413-173.906266 32.682681l0 81.878717 185.603225 0L946.249622 479.57534z" p-id="6453" fill="#d81e06"></path></svg>