<?xml version="1.0" encoding="utf-8"?>
<!-- Generator: Adobe Illustrator 22.1.0, SVG Export Plug-In . SVG Version: 6.00 Build 0)  -->
<svg version="1.1" id="图层_1" xmlns="http://www.w3.org/2000/svg" xmlns:xlink="http://www.w3.org/1999/xlink" x="0px" y="0px"
	 viewBox="0 0 200 200" style="enable-background:new 0 0 200 200;" xml:space="preserve">
<style type="text/css">
	.st0{fill:#666666;}
</style>
<path class="st0" d="M22.2,122.2c12.2,0,22.2-10,22.2-22.2s-10-22.2-22.2-22.2S0,87.8,0,100S10,122.2,22.2,122.2z M100,122.2
	c12.2,0,22.2-10,22.2-22.2s-10-22.2-22.2-22.2s-22.2,10-22.2,22.2S87.8,122.2,100,122.2z M177.8,122.2c12.2,0,22.2-10,22.2-22.2
	s-10-22.2-22.2-22.2c-12.2,0-22.2,10-22.2,22.2S165.6,122.2,177.8,122.2z"/>
</svg>
