<?xml version="1.0" standalone="no"?><!DOCTYPE svg PUBLIC "-//W3C//DTD SVG 1.1//EN" "http://www.w3.org/Graphics/SVG/1.1/DTD/svg11.dtd"><svg t="1553754193213" class="icon" style="" viewBox="0 0 1024 1024" version="1.1" xmlns="http://www.w3.org/2000/svg" p-id="2359" xmlns:xlink="http://www.w3.org/1999/xlink" width="81" height="81"><defs><style type="text/css"></style></defs><path d="M292.056 325.82l56.558 96.817m0.016 17.259c-5.931 0-11.707-3.063-14.917-8.556l-56.554-96.818c-4.807-8.227-2.035-18.792 6.192-23.599 8.231-4.807 18.796-2.035 23.603 6.197l56.558 96.817c4.807 8.227 2.03 18.793-6.197 23.6a17.142 17.142 0 0 1-8.685 2.359z m-10.56 74.672l-57.515 174.561m0.005 17.259c-1.791 0-3.61-0.278-5.405-0.872-9.053-2.982-13.969-12.734-10.986-21.787l57.514-174.561c2.982-9.049 12.735-13.969 21.788-10.986 9.048 2.981 13.969 12.734 10.986 21.787L296.943 694.53c-2.394 7.253-9.138 11.858-16.383 11.858z m423.751 38.625c-4.095 0-8.27-0.847-12.397-2.553-16.636-6.871-31.435-19.879-43.987-38.659-10.557-15.793-19.842-36.178-27.589-60.589-12.612-39.729-21.623-91.27-26.774-153.187-8.695-104.399-3.408-204.407-3.357-205.405 0.522-9.516 8.661-16.804 18.169-16.29 9.516 0.518 16.808 8.652 16.29 18.169-0.051 0.977-5.211 98.923 3.314 200.994 10.481 125.467 37.101 204.137 75.064 222.162 2.3-3.294 7.225-12.882 10.99-37.731 2.991-19.728 3.64-38.612 3.64-42.228 0-9.528 7.726-17.254 17.255-17.254 9.533 0 17.255 7.726 17.255 17.254 0 4.524-0.708 26-4.179 48.391-5.156 33.258-13.742 52.88-27.012 61.756-5.136 3.434-10.827 5.17-16.682 5.17z m1.853-401.938a17.188 17.188 0 0 1-11.416-4.322l-35.811-31.632c-7.141-6.311-7.819-17.213-1.509-24.357 6.307-7.14 17.213-7.818 24.354-1.508l35.811 31.632c7.145 6.311 7.818 17.217 1.509 24.357a17.21 17.21 0 0 1-12.938 5.83z m0 0" fill="#d81e06" p-id="2360"></path><path d="M537.468 754.314c-5.093 0-10.14-2.246-13.544-6.556-5.91-7.473-4.646-18.324 2.831-24.234 72.68-57.48 115.521-131.331 138.661-183.167 25.292-56.651 33.275-100.183 33.355-100.617 1.681-9.373 10.633-15.621 20.014-13.947 9.377 1.671 15.624 10.614 13.961 19.993-0.338 1.903-8.581 47.336-35.369 107.635-15.709 35.36-34.598 68.585-56.146 98.751-27.032 37.842-58.344 70.956-93.068 98.418a17.175 17.175 0 0 1-10.695 3.724z m24.618-294.291H456.645c-9.533 0-17.254-7.726-17.254-17.254s7.722-17.255 17.254-17.255h105.441c9.533 0 17.255 7.726 17.255 17.255s-7.722 17.254-17.255 17.254zM550.105 661.33h-81.48c-9.529 0-17.254-7.727-17.254-17.255V522.332c0-9.528 7.726-17.255 17.254-17.255h81.48c9.528 0 17.255 7.727 17.255 17.255v121.743c0 9.529-7.726 17.255-17.255 17.255z m-64.225-34.51h46.97v-87.233h-46.97v87.233z m0 0" fill="#d81e06" p-id="2361"></path><path d="M348.614 745.004a17.17 17.17 0 0 1-12.267-5.122c-6.686-6.762-6.643-17.646 0.088-24.353 0.329-0.333 14.403-14.757 28.595-43.142 13.172-26.346 29.167-70.506 30.562-131.28 2.81-122.78 0.063-165.284 0.034-165.702a17.261 17.261 0 0 1 17.212-18.431h331.673c9.533 0 17.254 7.721 17.254 17.255 0 9.529-7.721 17.254-17.254 17.254h-313.71c0.624 22.878 1.15 69.137-0.712 150.415-2.999 131.04-66.634 195.442-69.343 198.117a17.172 17.172 0 0 1-12.132 4.989z m0 0" fill="#d81e06" p-id="2362"></path><path d="M512.533 104.398c54.944 0 108.233 10.755 158.376 31.961 48.449 20.494 91.974 49.839 129.352 87.221 37.382 37.382 66.728 80.902 87.222 129.352 21.206 50.142 31.96 103.431 31.96 158.379 0 54.945-10.754 108.234-31.96 158.376-20.494 48.449-49.84 91.974-87.222 129.352-37.378 37.382-80.898 66.727-129.352 87.222-50.143 21.206-103.432 31.96-158.376 31.96-54.949 0-108.238-10.754-158.38-31.96-48.449-20.495-91.969-49.84-129.352-87.222-37.382-37.383-66.727-80.902-87.221-129.352-21.206-50.143-31.961-103.432-31.961-158.376 0-54.949 10.755-108.233 31.961-158.379 20.494-48.449 49.839-91.969 87.221-129.352 37.382-37.382 80.903-66.727 129.352-87.221 50.147-21.206 103.431-31.961 158.38-31.961m0-34.509c-243.79 0-441.423 197.633-441.423 441.422 0 243.791 197.633 441.419 441.423 441.419s441.419-197.629 441.419-441.419S756.323 69.889 512.533 69.889z m0 0" fill="#d81e06" p-id="2363"></path></svg>