<?xml version="1.0" standalone="no"?><!DOCTYPE svg PUBLIC "-//W3C//DTD SVG 1.1//EN" "http://www.w3.org/Graphics/SVG/1.1/DTD/svg11.dtd"><svg t="1553754039954" class="icon" style="" viewBox="0 0 1024 1024" version="1.1" xmlns="http://www.w3.org/2000/svg" p-id="11303" xmlns:xlink="http://www.w3.org/1999/xlink" width="81" height="81"><defs><style type="text/css"></style></defs><path d="M986.844952 16.169326 37.155048 16.169326c-11.352931 0-20.641693 9.288762-20.641693 20.641693l0 950.033932c0 11.352931 9.288762 20.641693 20.641693 20.641693l45.755753 0c0 0 0 0 0 0 0 0 0.172014 0 0.172014 0 9.116748 0 16.685369-6.70855 18.233496-15.48127 0 0 0 0 0 0 6.364522-28.554342 31.994625-49.884092 62.613136-49.884092 30.274483 0 55.732572 20.985721 62.441122 49.024022 0 0 0 0 0 0 1.204099 9.288762 8.944734 16.341341 18.40551 16.341341 0.688056 0 1.204099 0 1.892155-0.172014 0 0 0 0 0 0l65.70939 0c0 0 0.172014 0 0.172014 0 0 0 0.172014 0 0.172014 0l0.344028 0c0 0 0 0 0 0 8.77272-0.172014 15.997312-6.536536 17.717453-14.965228 0 0 0 0 0 0 6.192508-28.726356 31.82261-50.400134 62.78515-50.400134 30.618512 0 56.248614 21.32975 62.613136 49.712078 0 0 0 0 0 0 1.376113 8.944734 9.116748 15.653284 18.233496 15.653284 0.516042 0 1.032085 0 1.548127 0 0 0 0 0 0 0l70.353771 0c0 0 0.172014 0 0.172014 0 0 0 0.172014 0 0.172014 0l0.172014 0c0 0 0 0 0 0 9.288762-0.172014 16.857383-7.224593 18.061482-16.341341 0 0 0.172014 0 0.172014 0 6.70855-28.0383 32.166639-49.024022 62.441122-49.024022 30.102469 0 55.216529 20.469679 62.269108 48.163951 0.860071 9.63279 8.77272 17.201411 18.40551 17.201411 0 0 0.172014 0 0.172014 0L780.944062 1007.314631c0 0 0.172014 0 0.172014 0 0 0 0.172014 0 0.172014 0l0.688056 0c0 0 0 0 0 0 8.944734-0.516042 16.169326-7.052579 17.373425-15.825298 0 0 0 0 0 0 6.536536-28.382328 31.994625-49.540064 62.613136-49.540064 29.586427 0 54.528473 19.953637 61.92508 46.959852 1.032085 10.492861 10.148833 18.577524 21.32975 18.577524 1.204099 0 2.236183-0.172014 3.440282-0.344028l38.187133 0c11.352931 0 20.641693-9.288762 20.641693-20.641693L1007.486645 36.81102C1007.486645 25.458088 998.197883 16.169326 986.844952 16.169326zM244.432051 546.488829c-11.180917 4.988409-25.286074 10.664875-42.143457 16.857383l0 147.588107L170.637998 710.934319 170.637998 574.527129c-24.942046 8.256677-50.916177 15.825298-78.26642 22.705863l-7.568621-30.618512c31.478582-6.192508 60.032925-13.417101 85.835041-21.845792l0-117.313623L127.978498 427.455065c-4.472367 22.18982-9.804804 44.035612-15.997312 65.365362l-29.758441-8.428691c14.793214-45.583739 23.049891-94.779775 24.942046-147.588107l29.758441 2.752226c-0.860071 21.32975-2.408198 40.251302-4.472367 56.936671l38.187133 0 0-92.371577 31.478582 0 0 92.371577 37.843104 0 0 31.134554-37.843104 0 0 106.132706c15.137242-5.676466 29.242399-11.352931 42.143457-17.373425L244.260037 546.488829zM321.322358 653.137578c-13.073072-22.533848-30.274483-46.099782-51.604233-70.697799l24.942046-15.48127c22.533848 26.662187 39.907274 49.540064 51.948261 68.461616L321.322358 653.137578zM483.875693 547.864942l-49.712078 0L434.163615 667.414749c0 27.006215-12.901058 40.423316-38.703175 40.423316l-52.464304 0-7.052579-31.134554c22.533848 1.204099 38.703175 1.720141 48.507979 1.720141 11.180917 0 16.857383-6.364522 16.857383-19.093566l0-111.465144-140.019486 0 0-30.274483 140.019486 0 0-32.854695 32.854695 0 0 32.854695 49.712078 0L483.875693 547.864942zM488.004032 462.545943 251.48463 462.545943l0-30.274483 102.692424 0 0-52.464304-78.26642 0L275.910633 350.908785l78.26642 0 0-47.475895 31.994625 0L386.171678 350.908785l82.222745 0 0 28.898371-82.222745 0 0 52.464304 101.832353 0L488.004032 462.545943zM615.98253 402.513019l0 307.045187L583.127835 709.558206 583.127835 457.557534c-13.589115 20.125651-29.414413 40.079288-47.131866 59.516882l-10.664875-33.714766c44.207626-52.980346 75.858223-113.013271 95.123803-179.92676l30.274483 13.761129C641.440618 346.780447 629.915673 375.334789 615.98253 402.513019zM740.004704 527.395263c-0.860071 83.770872-22.705863 145.351923-65.365362 184.399126l-24.081975-20.813707c38.187133-33.714766 57.796741-88.243239 58.656812-163.585419l0-67.085503 30.618512 0L739.832689 527.395263zM854.566101 706.977994l-31.134554 0L823.431547 458.933647l31.134554 0L854.566101 706.977994zM919.415421 489.20813c-62.269108-41.455401-108.712918-92.371577-139.503444-152.920544-35.606921 67.77356-80.158576 120.409877-133.826978 157.736939l-17.717453-27.178229c59.516882-41.455401 105.272636-95.295817 137.26726-161.349236l28.898371 0c27.178229 59.00084 74.998152 111.121115 143.11574 156.360826L919.415421 489.20813z" p-id="11304" fill="#d81e06"></path></svg>