<?xml version="1.0" standalone="no"?><!DOCTYPE svg PUBLIC "-//W3C//DTD SVG 1.1//EN" "http://www.w3.org/Graphics/SVG/1.1/DTD/svg11.dtd"><svg t="1552875389655" class="icon" style="" viewBox="0 0 1024 1024" version="1.1" xmlns="http://www.w3.org/2000/svg" p-id="7984" xmlns:xlink="http://www.w3.org/1999/xlink" width="81" height="81"><defs><style type="text/css"></style></defs><path d="M166.4 307.2h236.8v-32c0-19.2 6.4-38.4 19.2-51.2 12.8-12.8 32-19.2 51.2-19.2h313.6v-38.4c0-19.2-6.4-38.4-25.6-57.6-12.8-12.8-32-25.6-57.6-25.6H249.6c-25.6 6.4-44.8 12.8-57.6 32-12.8 12.8-25.6 32-25.6 51.2v140.8zM416 640c-12.8 0-12.8 0-12.8-12.8 0-6.4 6.4-12.8 12.8-12.8h70.4l-76.8-140.8c-6.4-6.4 0-12.8 6.4-19.2 6.4-6.4 12.8 0 19.2 6.4L512 608l83.2-147.2c6.4-6.4 12.8-12.8 19.2-6.4 6.4 6.4 6.4 12.8 6.4 19.2L544 614.4h70.4c6.4 0 12.8 6.4 12.8 12.8 0 12.8-6.4 12.8-19.2 12.8h-83.2v51.2H608c6.4 0 12.8 6.4 12.8 12.8s-6.4 12.8-12.8 12.8h-83.2v64c0 6.4-6.4 12.8-12.8 12.8s-12.8-6.4-12.8-12.8v-64H416c-6.4 0-12.8-6.4-12.8-12.8s6.4-12.8 12.8-12.8h83.2V640H416z m556.8-70.4H864c-6.4 0-12.8-6.4-12.8-12.8S857.6 544 864 544h108.8V441.6c0-32-12.8-57.6-32-76.8-19.2-19.2-44.8-32-70.4-32H153.6c-25.6 6.4-51.2 19.2-70.4 38.4-19.2 19.2-32 44.8-32 70.4v96H160c6.4 0 12.8 6.4 12.8 12.8s-6.4 12.8-12.8 12.8H51.2v153.6H160c6.4 0 12.8 6.4 12.8 12.8s-6.4 12.8-12.8 12.8H51.2V832c0 25.6 12.8 57.6 32 76.8 19.2 19.2 44.8 32 76.8 32h710.4c25.6 0 57.6-12.8 76.8-32 19.2-19.2 32-44.8 32-76.8v-83.2H870.4c-6.4 0-12.8-6.4-12.8-12.8s6.4-12.8 12.8-12.8h108.8V569.6h-6.4zM435.2 307.2h416v-32c0-12.8-6.4-25.6-12.8-32-6.4-6.4-19.2-12.8-32-12.8h-320c-12.8-6.4-25.6 0-38.4 6.4-6.4 12.8-12.8 25.6-12.8 38.4v32z m448 6.4c32 6.4 57.6 19.2 76.8 38.4 25.6 25.6 38.4 57.6 38.4 96v384c0 38.4-12.8 70.4-38.4 96-25.6 25.6-57.6 38.4-96 38.4H153.6c-38.4 0-70.4-12.8-96-38.4-19.2-32-32-64-32-96V448c0-38.4 12.8-70.4 38.4-96 19.2-19.2 44.8-32 76.8-38.4V166.4c0-32 12.8-57.6 32-76.8C192 76.8 217.6 64 249.6 64h467.2c32 0 57.6 12.8 76.8 32 19.2 19.2 32 44.8 32 76.8v32L864 224c12.8 12.8 19.2 32 19.2 51.2v38.4z" fill="#ed758d" p-id="7985"></path><path d="M166.4 307.2h236.8v-32c0-19.2 6.4-38.4 19.2-51.2 12.8-12.8 32-19.2 51.2-19.2h313.6v-38.4c0-19.2-6.4-38.4-25.6-57.6-12.8-12.8-32-25.6-57.6-25.6H249.6c-25.6 6.4-44.8 12.8-57.6 32-12.8 12.8-25.6 32-25.6 51.2v140.8z" fill="#ed758d" p-id="7986"></path></svg>