<?xml version="1.0" encoding="utf-8"?>
<!-- Generator: Adobe Illustrator 22.1.0, SVG Export Plug-In . SVG Version: 6.00 Build 0)  -->
<svg version="1.1" id="图层_1" xmlns="http://www.w3.org/2000/svg" xmlns:xlink="http://www.w3.org/1999/xlink" x="0px" y="0px"
	 viewBox="0 0 612 792" style="enable-background:new 0 0 612 792;" xml:space="preserve">
<g>
	<path d="M488,215.6H124c-9.9,0-18,8.1-18,18l0,0c0,1.3,0.2,2.6,0.4,3.8l15.8,249.9c0.7,9.9,9.3,18,19.2,18l0,0
		c0.6,0,1.2-0.1,1.8-0.2h255c8.9,0,16.4-6.5,17.8-15.1c0.1-0.4,0.1-0.8,0.3-1.1L454.5,260c0.8-4.8,5-8.4,10-8.4H488
		c9.9,0,18-8.1,18-18l0,0C506,223.6,497.9,215.6,488,215.6z M374.6,469.1H166.6c-5.3,0-9.7-4.1-10-9.4l-12.5-197.5
		c-0.4-5.8,4.2-10.7,10-10.7h253.6c6.2,0,10.9,5.6,9.9,11.7l-33,197.5C383.7,465.6,379.5,469.1,374.6,469.1z"/>
	<circle cx="139.8" cy="546.5" r="30"/>
	<circle cx="404.8" cy="546.5" r="30"/>
</g>
</svg>
