<?xml version="1.0" standalone="no"?><!DOCTYPE svg PUBLIC "-//W3C//DTD SVG 1.1//EN" "http://www.w3.org/Graphics/SVG/1.1/DTD/svg11.dtd"><svg t="1547113643172" class="icon" style="" viewBox="0 0 1024 1024" version="1.1" xmlns="http://www.w3.org/2000/svg" p-id="3049" xmlns:xlink="http://www.w3.org/1999/xlink" width="200" height="200"><defs><style type="text/css"></style></defs><path d="M727.146 28.26c-37.72 0-67.312 42.056-67.312 42.056S631.918 28.26 592.506 28.26c-38.336 0-69.644 31.622-71.692 69.904-1.154 21.628 5.818 38.088 15.642 52.998 19.63 29.784 105.45 101.49 123.506 101.49 18.426 0 103.482-71.444 123.242-101.49 9.844-14.976 16.798-31.366 15.636-52.998-2.046-38.284-33.354-69.904-71.694-69.904" fill="#FECC85" p-id="3050"></path><path d="M431.49 28.26c-37.72 0-67.312 42.056-67.312 42.056S336.262 28.26 296.85 28.26c-38.336 0-69.644 31.622-71.692 69.904-1.154 21.628 5.818 38.088 15.642 52.998 19.63 29.784 105.45 101.49 123.502 101.49 18.426 0 103.482-71.444 123.242-101.49 9.844-14.976 16.798-31.366 15.636-52.998-2.044-38.284-33.352-69.904-71.69-69.904" fill="#FF5E8A" p-id="3051"></path><path d="M512 847.598c-7.432 0-14.724-2.998-19.98-8.284a27.096 27.096 0 0 1-3.504-4.296 28.644 28.644 0 0 1-2.6-4.86 27.68 27.68 0 0 1-1.61-5.284 28.072 28.072 0 0 1-0.566-5.54c0-7.432 3.024-14.724 8.28-19.98 1.3-1.3 2.742-2.486 4.296-3.504a28.93 28.93 0 0 1 4.86-2.6c1.724-0.706 3.504-1.24 5.284-1.61a28 28 0 0 1 11.05 0c1.808 0.37 3.59 0.904 5.314 1.61 1.696 0.706 3.334 1.586 4.86 2.6a27.096 27.096 0 0 1 4.296 3.504 28.476 28.476 0 0 1 8.28 19.98c0 7.46-3.024 14.724-8.28 19.978-1.3 1.3-2.742 2.486-4.296 3.532-1.526 1.018-3.166 1.894-4.86 2.6a29.4 29.4 0 0 1-5.314 1.61c-1.808 0.372-3.674 0.544-5.51 0.544z" fill="" p-id="3052"></path><path d="M512 736.994c-156.082 0-282.61-126.526-282.61-282.61v-163.996h565.218v163.996c0 156.082-126.526 282.61-282.608 282.61z" fill="#BBDCE3" p-id="3053"></path><path d="M588.304 967.478H540.26v-63.808c0-15.606-12.652-28.26-28.26-28.26-15.608 0-28.26 12.656-28.26 28.26v63.808h-48.044c-15.608 0-28.26 12.656-28.26 28.26s12.652 28.26 28.26 28.26h152.608c15.608 0 28.26-12.656 28.26-28.26s-12.652-28.26-28.26-28.26zM794.608 262.128h-91.052c9.594-6.536 21.264-15.328 35.578-27.212 24.29-20.166 54.824-48.68 67.684-68.234 9.526-14.49 21.986-37.51 20.244-70.028C824.16 42.454 780.272 0 727.144 0c-27.764 0-50.982 14.428-66.984 28.444C644.362 14.37 621.202 0 592.504 0c-32.892 0-62.23 16.286-80.506 41.55C493.724 16.286 464.386 0 431.49 0c-27.766 0-50.982 14.428-66.984 28.444C348.706 14.37 325.546 0 296.85 0c-53.124 0-97.012 42.454-99.914 96.66-1.738 32.588 10.734 55.586 20.266 70.05 12.754 19.356 43.452 47.886 67.926 68.138 14.402 11.918 26.124 20.73 35.744 27.278h-91.48c-15.608 0-28.26 12.656-28.26 28.26v163.996c0 171.414 139.456 310.87 310.87 310.87s310.87-139.456 310.87-310.87v-163.996c-0.002-15.606-12.656-28.258-28.264-28.258zM549.036 99.676c1.274-23.796 20.774-43.154 43.47-43.154 19.512 0 38.28 21.328 43.784 29.422 5.136 7.738 13.786 12.406 23.072 12.574 9.382 0.24 18.102-4.296 23.516-11.836 5.606-7.826 25.788-30.16 44.266-30.16 22.7 0 42.202 19.358 43.474 43.158 0.676 12.594-2.52 23.012-11.028 35.954-15.054 22.894-76.77 75.106-99.55 87.248-22.728-12.28-85.45-65.21-99.99-87.266-8.496-12.904-11.69-23.318-11.014-35.94zM264.394 135.608c-8.498-12.896-11.692-23.31-11.016-35.934 1.274-23.792 20.774-43.152 43.47-43.152 19.416 0 38.656 21.882 43.782 29.422a28.254 28.254 0 0 0 23.16 12.63c9.388 0.19 18.126-4.36 23.496-11.994 6.628-9.416 26.958-30.058 44.202-30.058 22.7 0 42.202 19.358 43.474 43.158 0.676 12.594-2.52 23.01-11.03 35.956-15.052 22.892-76.768 75.1-99.55 87.244-22.726-12.28-85.448-65.21-99.988-87.272z m179.082 99.308c24.29-20.166 54.826-48.68 67.684-68.234 0.274-0.418 0.56-0.87 0.84-1.3 0.286 0.44 0.576 0.898 0.86 1.328 12.758 19.356 43.452 47.888 67.926 68.138 14.402 11.918 26.124 20.73 35.744 27.278H407.9c9.594-6.534 21.264-15.326 35.576-27.21z m322.872 219.468c0 140.248-114.1 254.348-254.348 254.348s-254.348-114.1-254.348-254.348v-20.014h314.6c15.608 0 28.26-12.656 28.26-28.26 0-15.606-12.652-28.26-28.26-28.26h-314.6v-59.198h508.696v135.732z" fill="" p-id="3054"></path><path d="M656.582 434.364c-1.836 0-3.702-0.196-5.54-0.562-1.78-0.34-3.56-0.904-5.284-1.61a28.434 28.434 0 0 1-4.86-2.572 28.906 28.906 0 0 1-4.296-3.532 28.906 28.906 0 0 1-3.532-4.296 28.53 28.53 0 0 1-2.6-4.864 29.74 29.74 0 0 1-1.61-5.284 28.23 28.23 0 0 1-0.536-5.54 27.886 27.886 0 0 1 2.146-10.792 27.82 27.82 0 0 1 6.132-9.186c1.3-1.3 2.742-2.486 4.296-3.504a28.644 28.644 0 0 1 4.86-2.6 29.84 29.84 0 0 1 5.284-1.61c9.184-1.866 18.934 1.158 25.52 7.716 1.3 1.3 2.486 2.742 3.504 4.296a27.82 27.82 0 0 1 2.6 4.89c0.706 1.696 1.244 3.474 1.61 5.284 0.368 1.808 0.566 3.674 0.566 5.508 0 1.836-0.198 3.706-0.566 5.54a29.804 29.804 0 0 1-1.61 5.284 28.53 28.53 0 0 1-2.6 4.864 27.096 27.096 0 0 1-3.504 4.296c-1.3 1.3-2.742 2.486-4.296 3.532-1.526 1.018-3.166 1.866-4.89 2.572-1.696 0.706-3.476 1.272-5.284 1.61-1.808 0.366-3.672 0.56-5.51 0.56z" fill="" p-id="3055"></path></svg>