<?xml version="1.0" standalone="no"?><!DOCTYPE svg PUBLIC "-//W3C//DTD SVG 1.1//EN" "http://www.w3.org/Graphics/SVG/1.1/DTD/svg11.dtd"><svg t="1553753992285" class="icon" style="" viewBox="0 0 1024 1024" version="1.1" xmlns="http://www.w3.org/2000/svg" p-id="9851" xmlns:xlink="http://www.w3.org/1999/xlink" width="81" height="81"><defs><style type="text/css"></style></defs><path d="M499.206397 278.388806c-19.446277 0-35.310345 15.864068-35.310345 35.310344v272.247876c0 19.446277 15.864068 35.310345 35.310345 35.310345h3.070465v0.511744h241.543228c19.446277 0 35.310345-15.352324 35.310345-35.310344 0-19.446277-15.864068-35.310345-35.310345-35.310345h-209.303348v-237.96102c0-18.934533-15.864068-34.798601-35.310345-34.7986z" p-id="9852" fill="#d81e06"></path><path d="M126.656672 1018.370815c5.117441 3.070465 11.258371 4.605697 17.3993 4.605697 11.770115 0 24.051974-7.164418 30.192904-17.399301l44.521739-79.832084 2.55872 2.046977c81.87906 61.409295 179.110445 93.649175 290.158921 96.207896 111.56022-3.070465 209.303348-34.798601 289.647176-95.696152l2.558721-2.046976 44.009995 78.808595c6.14093 10.746627 18.422789 17.3993 30.192903 17.399301 5.629185 0 10.746627-1.535232 16.375813-4.093953 7.676162-4.093953 13.817091-11.770115 16.375812-20.469766 2.558721-8.69965 1.535232-18.422789-2.558721-26.610694l-51.686157-92.113943 1.535232-1.535233c86.996502-90.066967 132.541729-203.162419 135.612194-336.727636-3.070465-136.123938-50.150925-251.266367-140.729635-341.845077-90.578711-90.578711-205.721139-138.170915-341.845077-140.729635-136.123938 3.582209-251.266367 51.174413-342.356822 141.241379-90.578711 90.578711-138.170915 205.721139-140.729635 341.845077 3.070465 133.053473 48.103948 245.637181 135.10045 335.192404l1.535232 1.535233-52.197901 93.649175c-8.187906 16.375812-2.046977 36.845577 14.328836 46.568716z m-27.634183-478.992504c3.070465-116.165917 43.498251-213.909045 120.771614-291.182409 78.296852-78.296852 174.504748-117.701149 293.741129-120.771614 115.142429 3.070465 213.397301 43.498251 291.182409 120.771614 78.296852 78.296852 117.701149 174.504748 120.771614 293.741129-3.070465 116.165917-43.498251 213.909045-120.771614 291.182409l-1.023488 1.535233c-78.296852 77.273363-173.481259 116.165917-291.182409 118.724637-118.724638-3.070465-214.42079-42.474763-292.717641-120.771614-78.296852-77.785107-117.701149-173.993003-120.771614-293.229385zM198.812594 10.234883c-7.164418 0-13.817091 2.046977-19.446277 6.140929-46.568716 35.310345-88.01999 76.761619-121.795103 122.818591-5.629185 7.676162-7.676162 17.3993-6.140929 26.09895 1.535232 9.723138 6.652674 17.911044 13.817091 23.028486 7.164418 5.629185 15.352324 7.164418 20.98151 7.164418 10.746627 0 20.981509-5.117441 28.145927-13.817092l1.023488-1.535232c29.169415-39.404298 64.991504-75.738131 106.442778-108.489755 13.817091-10.746627 16.375812-31.216392 6.14093-46.056972-7.164418-9.723138-17.911044-15.352324-29.169415-15.352323zM804.717641 72.667666c40.427786 30.192904 76.249875 66.526737 107.466267 107.978011 7.164418 9.211394 16.887556 14.328836 28.145927 14.328836 8.187906 0 14.84058-2.046977 19.958021-6.652674 7.164418-5.117441 12.281859-13.817091 13.817092-23.028486 1.535232-9.211394-0.511744-17.911044-6.652674-26.09895-35.310345-47.08046-76.249875-88.531734-121.795103-122.818591-5.629185-4.093953-12.793603-6.14093-19.958021-6.140929-10.746627 0-19.958021 4.605697-27.122438 13.305347-11.770115 14.84058-9.211394 36.845577 6.140929 49.127436z" p-id="9853" fill="#d81e06"></path></svg>