<?xml version="1.0" encoding="utf-8"?>
<!-- Generator: Adobe Illustrator 22.1.0, SVG Export Plug-In . SVG Version: 6.00 Build 0)  -->
<svg version="1.1" id="图层_1" xmlns="http://www.w3.org/2000/svg" xmlns:xlink="http://www.w3.org/1999/xlink" x="0px" y="0px"
	 viewBox="0 0 612 792" style="enable-background:new 0 0 612 792;" xml:space="preserve">
<style type="text/css">
	.st0{fill:red;}
</style>
<g>
	<path class="st0" d="M435.7,196H176.3H140v36.3v31.3c0,85.6,65.6,156.6,149,165.2v130.9h-82.5c-10,0-18.2,8.2-18.2,18.2l0,0
		c0,10,8.2,18.2,18.2,18.2h195.8c10,0,18.2-8.2,18.2-18.2l0,0c0-10-8.2-18.2-18.2-18.2h-77V428.5c82.3-9.6,146.7-80.1,146.7-164.9
		v-31.3V196C472,196,435.7,196,435.7,196z M435.7,263.6c0,71.3-58.3,129.7-129.7,129.7l0,0c-71.3,0-129.7-58.3-129.7-129.7v-31.3
		h259.4V263.6z"/>
	<path class="st0" d="M307.2,375L307.2,375c59.4,0,108-48.6,108-108v-18.3h-216v18.3C199.2,326.3,247.8,375,307.2,375z"/>
</g>
</svg>
