<?xml version="1.0" encoding="utf-8"?>
<!-- Generator: Adobe Illustrator 22.1.0, SVG Export Plug-In . SVG Version: 6.00 Build 0)  -->
<svg version="1.1" id="图层_1" xmlns="http://www.w3.org/2000/svg" xmlns:xlink="http://www.w3.org/1999/xlink" x="0px" y="0px"
	 viewBox="0 0 612 792" style="enable-background:new 0 0 612 792;" xml:space="preserve">
<path d="M437.3,196H174.7h-36.8v36.8v31.7c0,87.1,67.3,159.4,152.4,167.3v127.4h-83.5c-10.1,0-18.4,8.3-18.4,18.4l0,0
	c0,10.1,8.3,18.4,18.4,18.4h198.2c10.1,0,18.4-8.3,18.4-18.4l0,0c0-10.1-8.3-18.4-18.4-18.4h-77.9V431.2
	c82.5-10.5,146.9-81.5,146.9-166.7v-31.7V196H437.3z M437.3,264.4c0,72.2-59,131.3-131.3,131.3l0,0c-72.2,0-131.3-59-131.3-131.3
	v-31.7h262.5V264.4z"/>
</svg>
